<svg width="933" height="133" viewBox="0 0 933 133" fill="none" xmlns="http://www.w3.org/2000/svg">
<path d="M49.6 103.28C42.688 103.28 36.2027 102 30.144 99.44C24.1707 96.7947 18.9227 93.168 14.4 88.56C9.96267 83.8667 6.464 78.4053 3.904 72.176C1.42933 65.9467 0.192 59.2053 0.192 51.952C0.192 44.784 1.42933 38.128 3.904 31.984C6.464 25.7547 9.96267 20.336 14.4 15.728C18.9227 11.0347 24.1707 7.36533 30.144 4.71999C36.1173 2.07466 42.6027 0.751999 49.6 0.751999C56.1707 0.751999 61.8027 1.60533 66.496 3.312C71.2747 5.01866 76.0533 7.83466 80.832 11.76C81.5147 12.272 82.0267 12.8267 82.368 13.424C82.7947 13.936 83.0507 14.4907 83.136 15.088C83.3067 15.6 83.392 16.24 83.392 17.008C83.392 18.6293 82.7947 19.9947 81.6 21.104C80.4907 22.128 79.1253 22.7253 77.504 22.896C75.8827 22.9813 74.304 22.4267 72.768 21.232C69.6107 18.5013 66.3253 16.4107 62.912 14.96C59.584 13.5093 55.1467 12.784 49.6 12.784C44.5653 12.784 39.8293 13.808 35.392 15.856C30.9547 17.904 27.0293 20.72 23.616 24.304C20.288 27.888 17.6853 32.0693 15.808 36.848C13.9307 41.5413 12.992 46.576 12.992 51.952C12.992 57.4133 13.9307 62.5333 15.808 67.312C17.6853 72.0053 20.288 76.144 23.616 79.728C27.0293 83.312 30.9547 86.128 35.392 88.176C39.8293 90.1387 44.5653 91.12 49.6 91.12C53.952 91.12 58.048 90.3947 61.888 88.944C65.8133 87.408 69.568 85.3173 73.152 82.672C74.688 81.5627 76.1813 81.0933 77.632 81.264C79.168 81.3493 80.448 81.9467 81.472 83.056C82.496 84.08 83.008 85.5307 83.008 87.408C83.008 88.2613 82.8373 89.1147 82.496 89.968C82.1547 90.736 81.6427 91.4613 80.96 92.144C76.352 95.8133 71.4027 98.5867 66.112 100.464C60.9067 102.341 55.4027 103.28 49.6 103.28ZM115.692 58.224C115.692 53.104 116.929 48.5387 119.404 44.528C121.964 40.432 125.377 37.1893 129.644 34.8C133.911 32.4107 138.604 31.216 143.724 31.216C148.844 31.216 152.641 32.0693 155.116 33.776C157.676 35.3973 158.657 37.36 158.06 39.664C157.804 40.8587 157.292 41.7973 156.524 42.48C155.841 43.0773 155.031 43.4613 154.092 43.632C153.153 43.8027 152.129 43.76 151.02 43.504C145.559 42.3947 140.652 42.3093 136.3 43.248C131.948 44.1867 128.492 45.936 125.932 48.496C123.457 51.056 122.22 54.2987 122.22 58.224H115.692ZM115.82 102C113.772 102 112.193 101.488 111.084 100.464C109.975 99.3547 109.42 97.7333 109.42 95.6V38.384C109.42 36.336 109.975 34.7573 111.084 33.648C112.193 32.5387 113.772 31.984 115.82 31.984C117.953 31.984 119.532 32.5387 120.556 33.648C121.665 34.672 122.22 36.2507 122.22 38.384V95.6C122.22 97.648 121.665 99.2267 120.556 100.336C119.532 101.445 117.953 102 115.82 102ZM190.614 132.72C189.761 132.72 188.737 132.464 187.542 131.952C183.787 130.245 182.763 127.557 184.47 123.888L223.51 35.696C225.217 32.112 227.905 31.088 231.574 32.624C235.414 34.2453 236.481 36.9333 234.774 40.688L195.606 128.752C194.582 131.397 192.918 132.72 190.614 132.72ZM205.718 99.184C204.097 99.8667 202.561 99.952 201.11 99.44C199.745 98.8427 198.635 97.7333 197.782 96.112L168.47 40.432C167.617 38.8107 167.489 37.2747 168.086 35.824C168.769 34.288 169.921 33.1787 171.542 32.496C173.163 31.8133 174.699 31.7707 176.15 32.368C177.601 32.88 178.71 33.9467 179.478 35.568L207.51 91.248C208.363 92.8693 208.662 94.448 208.406 95.984C208.235 97.4347 207.339 98.5013 205.718 99.184ZM259.998 131.952C258.121 131.952 256.542 131.312 255.262 130.032C254.067 128.837 253.47 127.301 253.47 125.424V67.056C253.555 60.3147 255.134 54.256 258.206 48.88C261.278 43.504 265.459 39.28 270.75 36.208C276.041 33.0507 282.014 31.472 288.67 31.472C295.411 31.472 301.427 33.0507 306.718 36.208C312.009 39.28 316.19 43.504 319.262 48.88C322.419 54.256 323.998 60.3147 323.998 67.056C323.998 73.7973 322.547 79.856 319.646 85.232C316.83 90.5227 312.947 94.7467 307.998 97.904C303.049 100.976 297.459 102.512 291.23 102.512C286.195 102.512 281.545 101.488 277.278 99.44C273.097 97.3067 269.513 94.448 266.526 90.864V125.424C266.526 127.301 265.929 128.837 264.734 130.032C263.539 131.312 261.961 131.952 259.998 131.952ZM288.67 90.992C293.022 90.992 296.905 89.968 300.318 87.92C303.731 85.7867 306.419 82.928 308.382 79.344C310.43 75.6747 311.454 71.5787 311.454 67.056C311.454 62.448 310.43 58.352 308.382 54.768C306.419 51.0987 303.731 48.24 300.318 46.192C296.905 44.0587 293.022 42.992 288.67 42.992C284.403 42.992 280.521 44.0587 277.022 46.192C273.609 48.24 270.921 51.0987 268.958 54.768C266.995 58.352 266.014 62.448 266.014 67.056C266.014 71.5787 266.995 75.6747 268.958 79.344C270.921 82.928 273.609 85.7867 277.022 87.92C280.521 89.968 284.403 90.992 288.67 90.992ZM375.342 102C371.075 102 367.235 100.933 363.822 98.8C360.409 96.5813 357.721 93.5947 355.758 89.84C353.795 86.0853 352.814 81.8613 352.814 77.168V16.112C352.814 14.2347 353.411 12.6987 354.606 11.504C355.801 10.3093 357.337 9.712 359.214 9.712C361.091 9.712 362.627 10.3093 363.822 11.504C365.017 12.6987 365.614 14.2347 365.614 16.112V77.168C365.614 80.5813 366.553 83.44 368.43 85.744C370.307 88.048 372.611 89.2 375.342 89.2H379.694C381.23 89.2 382.51 89.7973 383.534 90.992C384.643 92.1867 385.198 93.7227 385.198 95.6C385.198 97.4773 384.473 99.0133 383.022 100.208C381.657 101.403 379.865 102 377.646 102H375.342ZM346.926 45.552C345.134 45.552 343.683 45.04 342.574 44.016C341.465 42.992 340.91 41.712 340.91 40.176C340.91 38.4693 341.465 37.104 342.574 36.08C343.683 35.056 345.134 34.544 346.926 34.544H376.494C378.286 34.544 379.737 35.056 380.846 36.08C381.955 37.104 382.51 38.4693 382.51 40.176C382.51 41.712 381.955 42.992 380.846 44.016C379.737 45.04 378.286 45.552 376.494 45.552H346.926ZM439.389 102.512C432.477 102.512 426.376 101.019 421.085 98.032C415.794 94.96 411.613 90.7787 408.541 85.488C405.554 80.112 404.061 73.968 404.061 67.056C404.061 60.0587 405.554 53.9147 408.541 48.624C411.613 43.248 415.794 39.0667 421.085 36.08C426.376 33.008 432.477 31.472 439.389 31.472C446.216 31.472 452.274 33.008 457.565 36.08C462.856 39.0667 466.994 43.248 469.981 48.624C473.053 53.9147 474.589 60.0587 474.589 67.056C474.589 73.968 473.096 80.112 470.109 85.488C467.122 90.7787 462.984 94.96 457.693 98.032C452.402 101.019 446.301 102.512 439.389 102.512ZM439.389 90.992C443.826 90.992 447.752 89.968 451.165 87.92C454.578 85.872 457.224 83.056 459.101 79.472C461.064 75.888 462.045 71.7493 462.045 67.056C462.045 62.3627 461.064 58.224 459.101 54.64C457.224 50.9707 454.578 48.112 451.165 46.064C447.752 44.016 443.826 42.992 439.389 42.992C434.952 42.992 431.026 44.016 427.613 46.064C424.2 48.112 421.512 50.9707 419.549 54.64C417.586 58.224 416.605 62.3627 416.605 67.056C416.605 71.7493 417.586 75.888 419.549 79.472C421.512 83.056 424.2 85.872 427.613 87.92C431.026 89.968 434.952 90.992 439.389 90.992ZM506.948 131.952C505.071 131.952 503.492 131.312 502.212 130.032C501.017 128.837 500.42 127.301 500.42 125.424V67.056C500.505 60.3147 502.084 54.256 505.156 48.88C508.228 43.504 512.409 39.28 517.7 36.208C522.991 33.0507 528.964 31.472 535.62 31.472C542.361 31.472 548.377 33.0507 553.668 36.208C558.959 39.28 563.14 43.504 566.212 48.88C569.369 54.256 570.948 60.3147 570.948 67.056C570.948 73.7973 569.497 79.856 566.596 85.232C563.78 90.5227 559.897 94.7467 554.948 97.904C549.999 100.976 544.409 102.512 538.18 102.512C533.145 102.512 528.495 101.488 524.228 99.44C520.047 97.3067 516.463 94.448 513.476 90.864V125.424C513.476 127.301 512.879 128.837 511.684 130.032C510.489 131.312 508.911 131.952 506.948 131.952ZM535.62 90.992C539.972 90.992 543.855 89.968 547.268 87.92C550.681 85.7867 553.369 82.928 555.332 79.344C557.38 75.6747 558.404 71.5787 558.404 67.056C558.404 62.448 557.38 58.352 555.332 54.768C553.369 51.0987 550.681 48.24 547.268 46.192C543.855 44.0587 539.972 42.992 535.62 42.992C531.353 42.992 527.471 44.0587 523.972 46.192C520.559 48.24 517.871 51.0987 515.908 54.768C513.945 58.352 512.964 62.448 512.964 67.056C512.964 71.5787 513.945 75.6747 515.908 79.344C517.871 82.928 520.559 85.7867 523.972 87.92C527.471 89.968 531.353 90.992 535.62 90.992ZM603.092 58.224C603.092 53.104 604.329 48.5387 606.804 44.528C609.364 40.432 612.777 37.1893 617.044 34.8C621.311 32.4107 626.004 31.216 631.124 31.216C636.244 31.216 640.041 32.0693 642.516 33.776C645.076 35.3973 646.057 37.36 645.46 39.664C645.204 40.8587 644.692 41.7973 643.924 42.48C643.241 43.0773 642.431 43.4613 641.492 43.632C640.553 43.8027 639.529 43.76 638.42 43.504C632.959 42.3947 628.052 42.3093 623.7 43.248C619.348 44.1867 615.892 45.936 613.332 48.496C610.857 51.056 609.62 54.2987 609.62 58.224H603.092ZM603.22 102C601.172 102 599.593 101.488 598.484 100.464C597.375 99.3547 596.82 97.7333 596.82 95.6V38.384C596.82 36.336 597.375 34.7573 598.484 33.648C599.593 32.5387 601.172 31.984 603.22 31.984C605.353 31.984 606.932 32.5387 607.956 33.648C609.065 34.672 609.62 36.2507 609.62 38.384V95.6C609.62 97.648 609.065 99.2267 607.956 100.336C606.932 101.445 605.353 102 603.22 102ZM673.278 102C671.401 102 669.822 101.403 668.542 100.208C667.347 98.928 666.75 97.3493 666.75 95.472V38.512C666.75 36.5493 667.347 34.9707 668.542 33.776C669.822 32.5813 671.401 31.984 673.278 31.984C675.241 31.984 676.819 32.5813 678.014 33.776C679.209 34.9707 679.806 36.5493 679.806 38.512V95.472C679.806 97.3493 679.209 98.928 678.014 100.208C676.819 101.403 675.241 102 673.278 102ZM673.278 20.592C670.974 20.592 668.969 19.7813 667.262 18.16C665.641 16.4533 664.83 14.448 664.83 12.144C664.83 9.84 665.641 7.87733 667.262 6.256C668.969 4.54933 670.974 3.696 673.278 3.696C675.582 3.696 677.545 4.54933 679.166 6.256C680.873 7.87733 681.726 9.84 681.726 12.144C681.726 14.448 680.873 16.4533 679.166 18.16C677.545 19.7813 675.582 20.592 673.278 20.592ZM742.239 102.512C735.412 102.512 729.311 100.976 723.935 97.904C718.644 94.7467 714.463 90.5227 711.391 85.232C708.404 79.856 706.911 73.7973 706.911 67.056C706.911 60.144 708.404 54 711.391 48.624C714.378 43.248 718.474 39.0667 723.679 36.08C728.884 33.008 734.858 31.472 741.599 31.472C746.634 31.472 751.242 32.4533 755.423 34.416C759.604 36.2933 763.359 39.152 766.687 42.992C767.882 44.3573 768.308 45.7653 767.967 47.216C767.626 48.6667 766.687 49.9467 765.151 51.056C763.956 51.9093 762.634 52.208 761.183 51.952C759.732 51.6107 758.41 50.8427 757.215 49.648C753.034 45.2107 747.828 42.992 741.599 42.992C737.247 42.992 733.407 44.016 730.079 46.064C726.751 48.0267 724.148 50.8 722.271 54.384C720.394 57.968 719.455 62.192 719.455 67.056C719.455 71.664 720.394 75.76 722.271 79.344C724.234 82.928 726.922 85.7867 730.335 87.92C733.748 89.968 737.716 90.992 742.239 90.992C745.226 90.992 747.828 90.6507 750.047 89.968C752.351 89.2 754.442 88.048 756.319 86.512C757.684 85.4027 759.092 84.8053 760.543 84.72C761.994 84.5493 763.274 84.9333 764.383 85.872C765.834 87.0667 766.644 88.432 766.815 89.968C766.986 91.4187 766.474 92.7413 765.279 93.936C759.135 99.6533 751.455 102.512 742.239 102.512ZM826.666 102.512C819.583 102.512 813.269 101.019 807.722 98.032C802.261 94.96 797.951 90.7787 794.794 85.488C791.722 80.112 790.186 73.968 790.186 67.056C790.186 60.0587 791.637 53.9147 794.538 48.624C797.525 43.248 801.621 39.0667 806.826 36.08C812.031 33.008 818.005 31.472 824.746 31.472C831.402 31.472 837.119 32.9653 841.898 35.952C846.677 38.8533 850.303 42.9067 852.778 48.112C855.338 53.232 856.618 59.1627 856.618 65.904C856.618 67.5253 856.063 68.8907 854.954 70C853.845 71.024 852.437 71.536 850.73 71.536H799.146V61.296H850.346L845.098 64.88C845.013 60.6133 844.159 56.816 842.538 53.488C840.917 50.0747 838.613 47.3867 835.626 45.424C832.639 43.4613 829.013 42.48 824.746 42.48C819.882 42.48 815.701 43.5467 812.202 45.68C808.789 47.8133 806.186 50.7573 804.394 54.512C802.602 58.1813 801.706 62.3627 801.706 67.056C801.706 71.7493 802.773 75.9307 804.906 79.6C807.039 83.2693 809.983 86.1707 813.738 88.304C817.493 90.4373 821.802 91.504 826.666 91.504C829.311 91.504 831.999 91.0347 834.73 90.096C837.546 89.072 839.807 87.92 841.514 86.64C842.794 85.7013 844.159 85.232 845.61 85.232C847.146 85.1467 848.469 85.5733 849.578 86.512C851.029 87.792 851.797 89.2 851.882 90.736C851.967 92.272 851.285 93.5947 849.834 94.704C846.933 97.008 843.306 98.8853 838.954 100.336C834.687 101.787 830.591 102.512 826.666 102.512ZM905.142 102.512C899.169 102.512 893.622 101.616 888.502 99.824C883.467 97.9467 879.542 95.6 876.726 92.784C875.446 91.4187 874.891 89.8827 875.062 88.176C875.318 86.384 876.171 84.9333 877.622 83.824C879.329 82.4587 880.993 81.904 882.614 82.16C884.321 82.3307 885.771 83.056 886.966 84.336C888.417 85.9573 890.721 87.4933 893.878 88.944C897.121 90.3093 900.705 90.992 904.63 90.992C909.579 90.992 913.334 90.1813 915.894 88.56C918.539 86.9387 919.905 84.848 919.99 82.288C920.075 79.728 918.838 77.5093 916.278 75.632C913.803 73.7547 909.238 72.2187 902.582 71.024C893.963 69.3173 887.691 66.7573 883.766 63.344C879.926 59.9307 878.006 55.7493 878.006 50.8C878.006 46.448 879.286 42.864 881.846 40.048C884.406 37.1467 887.691 35.0133 891.702 33.648C895.713 32.1973 899.894 31.472 904.246 31.472C909.878 31.472 914.87 32.368 919.222 34.16C923.574 35.952 927.03 38.4267 929.59 41.584C930.785 42.9493 931.339 44.4 931.254 45.936C931.169 47.3867 930.443 48.624 929.078 49.648C927.713 50.5867 926.091 50.8853 924.214 50.544C922.337 50.2027 920.758 49.4347 919.478 48.24C917.345 46.192 915.041 44.784 912.566 44.016C910.091 43.248 907.233 42.864 903.99 42.864C900.235 42.864 897.035 43.504 894.39 44.784C891.83 46.064 890.55 47.9413 890.55 50.416C890.55 51.952 890.934 53.36 891.702 54.64C892.555 55.8347 894.177 56.944 896.566 57.968C898.955 58.9067 902.454 59.8453 907.062 60.784C913.462 62.064 918.497 63.6853 922.166 65.648C925.921 67.6107 928.609 69.9147 930.23 72.56C931.851 75.12 932.662 78.1067 932.662 81.52C932.662 85.4453 931.595 88.9867 929.462 92.144C927.414 95.3013 924.342 97.8187 920.246 99.696C916.235 101.573 911.201 102.512 905.142 102.512Z" fill="url(#paint0_linear_12_3)"/>
<defs>
<linearGradient id="paint0_linear_12_3" x1="808.39" y1="60" x2="303.743" y2="-25.709" gradientUnits="userSpaceOnUse">
<stop stop-color="#035D4E"/>
<stop offset="1" stop-color="#0CA183"/>
</linearGradient>
</defs>
</svg>
